HIERARCHY
ROOT Hips
{
	OFFSET 0.00000 0.00000 0.00000
	CHANNELS 6 Xposition Yposition Zposition Zrotation Yrotation Xrotation 
	JOINT LHipJoint
	{
		OFFSET 0 0 0
		CHANNELS 3 Zrotation Yrotation Xrotation
		JOINT LeftUpLeg
		{
			OFFSET 1.70593 -1.62653 0.87602
			CHANNELS 3 Zrotation Yrotation Xrotation
			JOINT LeftLeg
			{
				OFFSET 2.32330 -6.38322 0.00000
				CHANNELS 3 Zrotation Yrotation Xrotation
				JOINT LeftFoot
				{
					OFFSET 2.45016 -6.73177 0.00000
					CHANNELS 3 Zrotation Yrotation Xrotation
					JOINT LeftToeBase
					{
						OFFSET 0.13029 -0.35798 1.96980
						CHANNELS 3 Zrotation Yrotation Xrotation
						End Site
						{
							OFFSET 0.00000 -0.00000 1.01270
						}
					}
				}
			}
		}
	}
	JOINT RHipJoint
	{
		OFFSET 0 0 0
		CHANNELS 3 Zrotation Yrotation Xrotation
		JOINT RightUpLeg
		{
			OFFSET -1.80599 -1.62652 0.87602
			CHANNELS 3 Zrotation Yrotation Xrotation
			JOINT RightLeg
			{
				OFFSET -2.45375 -6.74162 0.00000
				CHANNELS 3 Zrotation Yrotation Xrotation
				JOINT RightFoot
				{
					OFFSET -2.45828 -6.75406 0.00000
					CHANNELS 3 Zrotation Yrotation Xrotation
					JOINT RightToeBase
					{
						OFFSET -0.13801 -0.37917 1.88456
						CHANNELS 3 Zrotation Yrotation Xrotation
						End Site
						{
							OFFSET -0.00000 -0.00000 0.97281
						}
					}
				}
			}
		}
	}
	JOINT LowerBack
	{
		OFFSET 0 0 0
		CHANNELS 3 Zrotation Yrotation Xrotation
		JOINT Spine
		{
			OFFSET 0.01003 2.00576 -0.14267
			CHANNELS 3 Zrotation Yrotation Xrotation
			JOINT Spine1
			{
				OFFSET 0.00908 2.01191 0.01660
				CHANNELS 3 Zrotation Yrotation Xrotation
				JOINT Neck
				{
					OFFSET 0 0 0
					CHANNELS 3 Zrotation Yrotation Xrotation
					JOINT Neck1
					{
						OFFSET -0.05849 1.60301 0.18934
						CHANNELS 3 Zrotation Yrotation Xrotation
						JOINT Head
						{
							OFFSET 0.01775 1.59435 -0.07960
							CHANNELS 3 Zrotation Yrotation Xrotation
							End Site
							{
								OFFSET 0.01210 1.70732 -0.05248
							}
						}
					}
				}
				JOINT LeftShoulder
				{
					OFFSET 0 0 0
					CHANNELS 3 Zrotation Yrotation Xrotation
					JOINT LeftArm
					{
						OFFSET 3.15315 1.26460 0.30667
						CHANNELS 3 Zrotation Yrotation Xrotation
						JOINT LeftForeArm
						{
							OFFSET 4.97694 -0.00000 -0.00000
							CHANNELS 3 Zrotation Yrotation Xrotation
							JOINT LeftHand
							{
								OFFSET 3.14391 -0.00000 -0.00000
								CHANNELS 3 Zrotation Yrotation Xrotation
								JOINT LeftFingerBase
								{
									OFFSET 0 0 0
									CHANNELS 3 Zrotation Yrotation Xrotation
									JOINT LeftHandIndex1
									{
										OFFSET 0.59358 -0.00000 -0.00000
										CHANNELS 3 Zrotation Yrotation Xrotation
										End Site
										{
											OFFSET 0.47856 -0.00000 -0.00000
										}
									}
								}
								JOINT LThumb
								{
									OFFSET 0 0 0
									CHANNELS 3 Zrotation Yrotation Xrotation
									End Site
									{
										OFFSET 0.48587 -0.00000 0.48587
									}
								}
							}
						}
					}
				}
				JOINT RightShoulder
				{
					OFFSET 0 0 0
					CHANNELS 3 Zrotation Yrotation Xrotation
					JOINT RightArm
					{
						OFFSET -3.25568 1.35581 0.18982
						CHANNELS 3 Zrotation Yrotation Xrotation
						JOINT RightForeArm
						{
							OFFSET -4.90473 -0.00000 0.00000
							CHANNELS 3 Zrotation Yrotation Xrotation
							JOINT RightHand
							{
								OFFSET -3.21621 0.00006 -0.00004
								CHANNELS 3 Zrotation Yrotation Xrotation
								JOINT RightFingerBase
								{
									OFFSET 0 0 0
									CHANNELS 3 Zrotation Yrotation Xrotation
									JOINT RightHandIndex1
									{
										OFFSET -0.62353 -0.00000 -0.00000
										CHANNELS 3 Zrotation Yrotation Xrotation
										End Site
										{
											OFFSET -0.50270 -0.00000 -0.00000
										}
									}
								}
								JOINT RThumb
								{
									OFFSET 0 0 0
									CHANNELS 3 Zrotation Yrotation Xrotation
									End Site
									{
										OFFSET -0.51038 -0.00000 0.51038
									}
								}
							}
						}
					}
				}
			}
		}
	}
}
MOTION
Frames: 7
Frame Time: .0083333
6.7982 13.3534 -37.5446 0 0 0 0 0 0 -21 0 0 0 0 0 0 0 0 0 0 0 0 0 0 21 0 0 0 0 0 0 0 0 0 0 0 0 0 0 0 0 0 0 0 0 0 0 -16 0 0 21 0 0 11 0 0 0 -8 0 0 0 0 0 0 0 0 0 0 0 0 0 0 0 0 0 0 0 0 8 0 0 0 0 0 0 0 0 0 0 0 0 0 0 0 0 0
6.7982 13.3534 -37.5446 -5.8522 -21.0138 15.7111 0.0000 0.0000 0.0000 -5.8077 -3.8354 -71.2838 10.1108 17.4717 59.8579 0.1489 1.2981 -7.8861 0.0642 1.6351 4.4981 0.0000 0.0000 0.0000 17.5571 4.3091 23.3744 -1.2608 -7.1178 20.0650 -3.3816 -17.0671 33.6493 -0.0314 -1.1439 3.1449 2.5158 10.1959 0.0589 -4.6784 13.5504 -5.8503 -6.5711 6.5793 -4.4198 -3.8850 -2.1586 -9.9171 6.9524 -3.1154 9.1192 2.5681 -1.2568 4.5254 -0.0000 -0.0000 0.0000 -70.2545 47.2183 -33.2057 5.6653 -9.7028 -0.4812 -0.0000 -0.0000 24.8061 17.1404 -14.6568 -4.4622 -7.1250 0.0000 -0.0000 -7.0434 14.7534 5.0565 -0.0000 -0.0000 0.0000 64.7112 31.0044 41.0164 -38.0610 46.8782 -17.0101 0.0000 -0.0000 -17.8388 -26.8784 -33.7563 15.7293 7.1250 -0.0000 -0.0000 7.7529 -66.6706 -4.0591
6.7982 13.3534 -37.5446 -5.8522 -21.0138 15.7111 0.0000 0.0000 0.0000 -5.8077 -3.8354 -71.2838 10.1108 17.4717 59.8579 0.1489 1.2981 -7.8861 0.0642 1.6351 4.4981 0.0000 0.0000 0.0000 17.5571 4.3091 23.3744 -1.2608 -7.1178 20.0650 -3.3816 -17.0671 33.6493 -0.0314 -1.1439 3.1449 2.5158 10.1959 0.0589 -4.6784 13.5504 -5.8503 -6.5711 6.5793 -4.4198 -3.8850 -2.1586 -9.9171 6.9524 -3.1154 9.1192 2.5681 -1.2568 4.5254 -0.0000 -0.0000 0.0000 -70.2545 47.2183 -33.2057 5.6653 -9.7028 -0.4812 -0.0000 -0.0000 24.8061 17.1404 -14.6568 -4.4622 -7.1250 0.0000 -0.0000 -7.0434 14.7534 5.0565 -0.0000 -0.0000 0.0000 64.7112 31.0044 41.0164 -38.0610 46.8782 -17.0101 0.0000 -0.0000 -17.8388 -26.8784 -33.7563 15.7293 7.1250 -0.0000 -0.0000 7.7529 -66.6706 -4.0591
6.7982 13.3534 -37.5446 -5.8522 -21.0138 15.7111 0.0000 0.0000 0.0000 -5.8077 -3.8354 -71.2838 10.1108 17.4717 59.8579 0.1489 1.2981 -7.8861 0.0642 1.6351 4.4981 0.0000 0.0000 0.0000 17.5571 4.3091 23.3744 -1.2608 -7.1178 20.0650 -3.3816 -17.0671 33.6493 -0.0314 -1.1439 3.1449 2.5158 10.1959 0.0589 -4.6784 13.5504 -5.8503 -6.5711 6.5793 -4.4198 -3.8850 -2.1586 -9.9171 6.9524 -3.1154 9.1192 2.5681 -1.2568 4.5254 -0.0000 -0.0000 0.0000 -70.2545 47.2183 -33.2057 5.6653 -9.7028 -0.4812 -0.0000 -0.0000 24.8061 17.1404 -14.6568 -4.4622 -7.1250 0.0000 -0.0000 -7.0434 14.7534 5.0565 -0.0000 -0.0000 0.0000 64.7112 31.0044 41.0164 -38.0610 46.8782 -17.0101 0.0000 -0.0000 -17.8388 -26.8784 -33.7563 15.7293 7.1250 -0.0000 -0.0000 7.7529 -66.6706 -4.0591
6.7982 13.3534 -37.5446 -5.8522 -21.0138 15.7111 0.0000 0.0000 0.0000 -5.8077 -3.8354 -71.2838 10.1108 17.4717 59.8579 0.1489 1.2981 -7.8861 0.0642 1.6351 4.4981 0.0000 0.0000 0.0000 17.5571 4.3091 23.3744 -1.2608 -7.1178 20.0650 -3.3816 -17.0671 33.6493 -0.0314 -1.1439 3.1449 2.5158 10.1959 0.0589 -4.6784 13.5504 -5.8503 -6.5711 6.5793 -4.4198 -3.8850 -2.1586 -9.9171 6.9524 -3.1154 9.1192 2.5681 -1.2568 4.5254 -0.0000 -0.0000 0.0000 -70.2545 47.2183 -33.2057 5.6653 -9.7028 -0.4812 -0.0000 -0.0000 24.8061 17.1404 -14.6568 -4.4622 -7.1250 0.0000 -0.0000 -7.0434 14.7534 5.0565 -0.0000 -0.0000 0.0000 64.7112 31.0044 41.0164 -38.0610 46.8782 -17.0101 0.0000 -0.0000 -17.8388 -26.8784 -33.7563 15.7293 7.1250 -0.0000 -0.0000 7.7529 -66.6706 -4.0591
6.7982 13.3534 -37.5446 -5.8522 -21.0138 15.7111 0.0000 0.0000 0.0000 -5.8077 -3.8354 -71.2838 10.1108 17.4717 59.8579 0.1489 1.2981 -7.8861 0.0642 1.6351 4.4981 0.0000 0.0000 0.0000 17.5571 4.3091 23.3744 -1.2608 -7.1178 20.0650 -3.3816 -17.0671 33.6493 -0.0314 -1.1439 3.1449 2.5158 10.1959 0.0589 -4.6784 13.5504 -5.8503 -6.5711 6.5793 -4.4198 -3.8850 -2.1586 -9.9171 6.9524 -3.1154 9.1192 2.5681 -1.2568 4.5254 -0.0000 -0.0000 0.0000 -70.2545 47.2183 -33.2057 5.6653 -9.7028 -0.4812 -0.0000 -0.0000 24.8061 17.1404 -14.6568 -4.4622 -7.1250 0.0000 -0.0000 -7.0434 14.7534 5.0565 -0.0000 -0.0000 0.0000 64.7112 31.0044 41.0164 -38.0610 46.8782 -17.0101 0.0000 -0.0000 -17.8388 -26.8784 -33.7563 15.7293 7.1250 -0.0000 -0.0000 7.7529 -66.6706 -4.0591
6.7982 13.3534 -37.5446 -5.8522 -21.0138 15.7111 0.0000 0.0000 0.0000 -5.8077 -3.8354 -71.2838 10.1108 17.4717 59.8579 0.1489 1.2981 -7.8861 0.0642 1.6351 4.4981 0.0000 0.0000 0.0000 17.5571 4.3091 23.3744 -1.2608 -7.1178 20.0650 -3.3816 -17.0671 33.6493 -0.0314 -1.1439 3.1449 2.5158 10.1959 0.0589 -4.6784 13.5504 -5.8503 -6.5711 6.5793 -4.4198 -3.8850 -2.1586 -9.9171 6.9524 -3.1154 9.1192 2.5681 -1.2568 4.5254 -0.0000 -0.0000 0.0000 -70.2545 47.2183 -33.2057 5.6653 -9.7028 -0.4812 -0.0000 -0.0000 24.8061 17.1404 -14.6568 -4.4622 -7.1250 0.0000 -0.0000 -7.0434 14.7534 5.0565 -0.0000 -0.0000 0.0000 64.7112 31.0044 41.0164 -38.0610 46.8782 -17.0101 0.0000 -0.0000 -17.8388 -26.8784 -33.7563 15.7293 7.1250 -0.0000 -0.0000 7.7529 -66.6706 -4.0591
